<mxfile host="65bd71144e">
    <diagram id="nZBiKQCrUtxQ9N9lAvGQ" name="Page-1">
        <mxGraphModel dx="359" dy="642" grid="1" gridSize="10" guides="1" tooltips="1" connect="1" arrows="1" fold="1" page="1" pageScale="1" pageWidth="850" pageHeight="1100" background="#ffffff" math="0" shadow="0">
            <root>
                <mxCell id="0"/>
                <mxCell id="1" parent="0"/>
                <mxCell id="2" value="15" style="ellipse;whiteSpace=wrap;html=1;aspect=fixed;fillColor=#66FFFF;strokeColor=#000000;strokeWidth=2;fontStyle=1;fontSize=15;fontColor=#000000;" parent="1" vertex="1">
                    <mxGeometry x="740" y="110" width="40" height="40" as="geometry"/>
                </mxCell>
                <mxCell id="3" value="5" style="ellipse;whiteSpace=wrap;html=1;aspect=fixed;fillColor=#66FFFF;strokeColor=#000000;strokeWidth=2;fontStyle=1;fontSize=15;fontColor=#000000;" parent="1" vertex="1">
                    <mxGeometry x="616" y="190" width="39" height="39" as="geometry"/>
                </mxCell>
                <mxCell id="4" value="1" style="ellipse;whiteSpace=wrap;html=1;aspect=fixed;fillColor=#66FFFF;strokeColor=#000000;strokeWidth=2;fontStyle=1;fontSize=15;fontColor=#000000;" parent="1" vertex="1">
                    <mxGeometry x="549" y="271.5" width="39" height="39" as="geometry"/>
                </mxCell>
                <mxCell id="5" value="" style="endArrow=none;html=1;entryX=0;entryY=1;entryDx=0;entryDy=0;exitX=1;exitY=0;exitDx=0;exitDy=0;strokeColor=#000000;strokeWidth=3;fontStyle=1;fontSize=15;fontColor=#000000;" parent="1" source="3" target="2" edge="1">
                    <mxGeometry width="50" height="50" relative="1" as="geometry">
                        <mxPoint x="715" y="280" as="sourcePoint"/>
                        <mxPoint x="765" y="230" as="targetPoint"/>
                    </mxGeometry>
                </mxCell>
                <mxCell id="6" value="" style="endArrow=none;html=1;entryX=1;entryY=1;entryDx=0;entryDy=0;exitX=0;exitY=0;exitDx=0;exitDy=0;strokeColor=#000000;strokeWidth=3;fontStyle=1;fontSize=15;fontColor=#000000;" parent="1" source="20" target="2" edge="1">
                    <mxGeometry width="50" height="50" relative="1" as="geometry">
                        <mxPoint x="854.7114177668627" y="196.21141776686238" as="sourcePoint"/>
                        <mxPoint x="794.4214177668641" y="137.57858223313622" as="targetPoint"/>
                    </mxGeometry>
                </mxCell>
                <mxCell id="9" value="&lt;font style=&quot;font-size: 15px;&quot;&gt;&lt;span style=&quot;font-size: 15px;&quot;&gt;3&lt;/span&gt;&lt;/font&gt;" style="ellipse;whiteSpace=wrap;html=1;aspect=fixed;fillColor=#66FFFF;strokeColor=#000000;strokeWidth=2;fontStyle=1;fontSize=15;fontColor=#000000;" parent="1" vertex="1">
                    <mxGeometry x="588" y="350.5" width="39" height="39" as="geometry"/>
                </mxCell>
                <mxCell id="10" value="" style="endArrow=none;html=1;entryX=1;entryY=1;entryDx=0;entryDy=0;strokeColor=#000000;strokeWidth=3;rounded=1;exitX=0.342;exitY=0.034;exitDx=0;exitDy=0;exitPerimeter=0;fontStyle=1;fontSize=15;fontColor=#000000;" parent="1" source="9" target="4" edge="1">
                    <mxGeometry width="50" height="50" relative="1" as="geometry">
                        <mxPoint x="675" y="358.21" as="sourcePoint"/>
                        <mxPoint x="649.9985822331423" y="320.4985822331424" as="targetPoint"/>
                    </mxGeometry>
                </mxCell>
                <mxCell id="11" value="9" style="ellipse;whiteSpace=wrap;html=1;aspect=fixed;fillColor=#66FFFF;strokeColor=#000000;strokeWidth=2;fontStyle=1;fontSize=15;fontColor=#000000;" parent="1" vertex="1">
                    <mxGeometry x="679" y="271.5" width="39" height="39" as="geometry"/>
                </mxCell>
                <mxCell id="12" value="7" style="ellipse;whiteSpace=wrap;html=1;aspect=fixed;fillColor=#66FFFF;strokeColor=#000000;strokeWidth=2;fontStyle=1;fontSize=15;fontColor=#000000;" parent="1" vertex="1">
                    <mxGeometry x="640" y="350.5" width="39" height="39" as="geometry"/>
                </mxCell>
                <mxCell id="13" value="" style="endArrow=none;html=1;strokeColor=#000000;strokeWidth=3;exitX=0.645;exitY=0.005;exitDx=0;exitDy=0;exitPerimeter=0;entryX=0;entryY=1;entryDx=0;entryDy=0;fontStyle=1;fontSize=15;fontColor=#000000;" parent="1" source="12" target="11" edge="1">
                    <mxGeometry width="50" height="50" relative="1" as="geometry">
                        <mxPoint x="679" y="340.5" as="sourcePoint"/>
                        <mxPoint x="679" y="310.5" as="targetPoint"/>
                    </mxGeometry>
                </mxCell>
                <mxCell id="14" value="10" style="ellipse;whiteSpace=wrap;html=1;aspect=fixed;fillColor=#66FFFF;strokeColor=#000000;strokeWidth=2;fontStyle=1;fontSize=15;fontColor=#000000;" parent="1" vertex="1">
                    <mxGeometry x="718" y="350.5" width="39" height="39" as="geometry"/>
                </mxCell>
                <mxCell id="15" value="" style="endArrow=none;html=1;entryX=1;entryY=1;entryDx=0;entryDy=0;strokeColor=#000000;strokeWidth=3;rounded=1;exitX=0.342;exitY=0.034;exitDx=0;exitDy=0;exitPerimeter=0;fontStyle=1;fontSize=15;fontColor=#000000;" parent="1" source="14" target="11" edge="1">
                    <mxGeometry width="50" height="50" relative="1" as="geometry">
                        <mxPoint x="805" y="358.21" as="sourcePoint"/>
                        <mxPoint x="779.9985822331423" y="320.4985822331424" as="targetPoint"/>
                    </mxGeometry>
                </mxCell>
                <mxCell id="16" value="16" style="ellipse;whiteSpace=wrap;html=1;aspect=fixed;fillColor=#66FFFF;strokeColor=#000000;strokeWidth=2;fontStyle=1;fontSize=15;fontColor=#000000;" parent="1" vertex="1">
                    <mxGeometry x="771" y="350.5" width="39" height="39" as="geometry"/>
                </mxCell>
                <mxCell id="17" value="" style="endArrow=none;html=1;strokeColor=#000000;strokeWidth=3;exitX=0.645;exitY=0.005;exitDx=0;exitDy=0;exitPerimeter=0;entryX=0;entryY=1;entryDx=0;entryDy=0;fontStyle=1;fontSize=15;fontColor=#000000;" parent="1" source="16" target="21" edge="1">
                    <mxGeometry width="50" height="50" relative="1" as="geometry">
                        <mxPoint x="810" y="340.5" as="sourcePoint"/>
                        <mxPoint x="820" y="330.5" as="targetPoint"/>
                    </mxGeometry>
                </mxCell>
                <mxCell id="18" value="" style="endArrow=none;html=1;entryX=0;entryY=1;entryDx=0;entryDy=0;exitX=0.5;exitY=0;exitDx=0;exitDy=0;strokeColor=#000000;strokeWidth=3;fontStyle=1;fontSize=15;fontColor=#000000;" parent="1" source="4" target="3" edge="1">
                    <mxGeometry width="50" height="50" relative="1" as="geometry">
                        <mxPoint x="625.7885822331241" y="271.0014177668756" as="sourcePoint"/>
                        <mxPoint x="693.2114177668614" y="218.5785822331382" as="targetPoint"/>
                    </mxGeometry>
                </mxCell>
                <mxCell id="19" value="" style="endArrow=none;html=1;entryX=1;entryY=1;entryDx=0;entryDy=0;exitX=0.5;exitY=0;exitDx=0;exitDy=0;strokeColor=#000000;strokeWidth=3;fontStyle=1;fontSize=15;fontColor=#000000;" parent="1" source="11" target="3" edge="1">
                    <mxGeometry width="50" height="50" relative="1" as="geometry">
                        <mxPoint x="663.2885822331241" y="215.71141776687557" as="sourcePoint"/>
                        <mxPoint x="730.7114177668614" y="163.2885822331382" as="targetPoint"/>
                    </mxGeometry>
                </mxCell>
                <mxCell id="20" value="22" style="ellipse;whiteSpace=wrap;html=1;aspect=fixed;fillColor=#66FFFF;strokeColor=#000000;strokeWidth=2;fontStyle=1;fontSize=15;fontColor=#000000;" parent="1" vertex="1">
                    <mxGeometry x="877" y="189.5" width="39" height="39" as="geometry"/>
                </mxCell>
                <mxCell id="21" value="18" style="ellipse;whiteSpace=wrap;html=1;aspect=fixed;fillColor=#66FFFF;strokeColor=#000000;strokeWidth=2;fontStyle=1;fontSize=15;fontColor=#000000;" parent="1" vertex="1">
                    <mxGeometry x="810" y="271" width="39" height="39" as="geometry"/>
                </mxCell>
                <mxCell id="22" value="24" style="ellipse;whiteSpace=wrap;html=1;aspect=fixed;fillColor=#66FFFF;strokeColor=#000000;strokeWidth=2;fontStyle=1;fontSize=15;fontColor=#000000;" parent="1" vertex="1">
                    <mxGeometry x="940" y="271" width="39" height="39" as="geometry"/>
                </mxCell>
                <mxCell id="23" value="" style="endArrow=none;html=1;entryX=0;entryY=1;entryDx=0;entryDy=0;strokeColor=#000000;strokeWidth=3;exitX=0.68;exitY=0.052;exitDx=0;exitDy=0;exitPerimeter=0;fontStyle=1;fontSize=15;fontColor=#000000;" parent="1" source="21" target="20" edge="1">
                    <mxGeometry width="50" height="50" relative="1" as="geometry">
                        <mxPoint x="850" y="260.5" as="sourcePoint"/>
                        <mxPoint x="954.2114177668614" y="218.0785822331382" as="targetPoint"/>
                    </mxGeometry>
                </mxCell>
                <mxCell id="24" value="" style="endArrow=none;html=1;entryX=1;entryY=1;entryDx=0;entryDy=0;exitX=0.5;exitY=0;exitDx=0;exitDy=0;strokeColor=#000000;strokeWidth=3;fontStyle=1;fontSize=15;fontColor=#000000;" parent="1" source="22" target="20" edge="1">
                    <mxGeometry width="50" height="50" relative="1" as="geometry">
                        <mxPoint x="924.2885822331241" y="215.21141776687557" as="sourcePoint"/>
                        <mxPoint x="991.7114177668614" y="162.7885822331382" as="targetPoint"/>
                    </mxGeometry>
                </mxCell>
                <mxCell id="27" value="Text" style="text;html=1;strokeColor=none;fillColor=none;align=center;verticalAlign=middle;whiteSpace=wrap;rounded=0;fontSize=15;fontColor=#FFFFFF;" parent="1" vertex="1">
                    <mxGeometry x="730" y="60" width="60" height="30" as="geometry"/>
                </mxCell>
                <mxCell id="28" value="Text" style="text;html=1;strokeColor=none;fillColor=none;align=center;verticalAlign=middle;whiteSpace=wrap;rounded=0;fontSize=15;fontColor=#FFFFFF;" parent="1" vertex="1">
                    <mxGeometry x="470" y="271" width="60" height="30" as="geometry"/>
                </mxCell>
                <mxCell id="30" value="Text" style="text;html=1;strokeColor=none;fillColor=none;align=center;verticalAlign=middle;whiteSpace=wrap;rounded=0;fontSize=15;fontColor=#FFFFFF;" parent="1" vertex="1">
                    <mxGeometry x="730" y="410" width="60" height="30" as="geometry"/>
                </mxCell>
                <mxCell id="31" value="Text" style="text;html=1;strokeColor=none;fillColor=none;align=center;verticalAlign=middle;whiteSpace=wrap;rounded=0;fontSize=15;fontColor=#FFFFFF;" parent="1" vertex="1">
                    <mxGeometry x="1010" y="276" width="60" height="30" as="geometry"/>
                </mxCell>
            </root>
        </mxGraphModel>
    </diagram>
</mxfile>